<?xml version="1.0" encoding="UTF-8" standalone="no"?>
<!-- Created with Inkscape (http://www.inkscape.org/) -->

<svg
   xmlns:dc="http://purl.org/dc/elements/1.1/"
   xmlns:cc="http://creativecommons.org/ns#"
   xmlns:rdf="http://www.w3.org/1999/02/22-rdf-syntax-ns#"
   xmlns:svg="http://www.w3.org/2000/svg"
   xmlns="http://www.w3.org/2000/svg"
   xmlns:sodipodi="http://sodipodi.sourceforge.net/DTD/sodipodi-0.dtd"
   xmlns:inkscape="http://www.inkscape.org/namespaces/inkscape"
   width="50"
   height="50"
   viewBox="0 0 13.229167 13.229167"
   version="1.1"
   id="svg8"
   inkscape:version="0.92.3 (2405546, 2018-03-11)"
   sodipodi:docname="color_pin.svg">
  <defs
     id="defs2" />
  <sodipodi:namedview
     id="base"
     pagecolor="#ffffff"
     bordercolor="#666666"
     borderopacity="1.0"
     inkscape:pageopacity="0.0"
     inkscape:pageshadow="2"
     inkscape:zoom="253.42707"
     inkscape:cx="0.67827347"
     inkscape:cy="49.216941"
     inkscape:document-units="mm"
     inkscape:current-layer="layer1"
     showgrid="false"
     fit-margin-top="0"
     fit-margin-left="0"
     fit-margin-right="0"
     fit-margin-bottom="0"
     inkscape:window-width="1920"
     inkscape:window-height="1017"
     inkscape:window-x="-8"
     inkscape:window-y="-8"
     inkscape:window-maximized="1"
     units="px" />
  <metadata
     id="metadata5">
    <rdf:RDF>
      <cc:Work
         rdf:about="">
        <dc:format>image/svg+xml</dc:format>
        <dc:type
           rdf:resource="http://purl.org/dc/dcmitype/StillImage" />
        <dc:title></dc:title>
      </cc:Work>
    </rdf:RDF>
  </metadata>
  <g
     inkscape:label="Layer 1"
     inkscape:groupmode="layer"
     id="layer1"
     transform="translate(-10.961236,-9.5492131)">
    <path
       style="opacity:1;fill:#000000;fill-opacity:0.21634617;stroke:#000000;stroke-width:0.26458332;stroke-linejoin:miter;stroke-miterlimit:4;stroke-dasharray:none;stroke-dashoffset:0;stroke-opacity:1"
       d="m 17.571292,9.6822874 a 6.4782351,6.4782351 0 0 0 -6.47849,6.4778876 6.4782351,6.4782351 0 0 0 6.47849,6.478489 6.4782351,6.4782351 0 0 0 6.477887,-6.478489 6.4782351,6.4782351 0 0 0 -6.477887,-6.4778876 z m 0.831652,1.4369296 c 0.206841,0.0076 0.544285,0.06554 1.089857,0.127299 1.454857,0.1647 2.8,1.592451 2.8,1.592451 0,0 0.686253,2.388161 0.768604,3.458716 0.08234,1.070557 -0.05541,1.07047 -0.659318,0.466568 -0.603903,-0.603904 -2.113145,-1.509587 -2.99155,-2.086039 -0.878404,-0.576454 -1.29059,-2.195927 -1.318036,-2.964528 -0.01715,-0.48038 -0.03429,-0.607335 0.310443,-0.594467 z"
       id="path4518"
       inkscape:connector-curvature="0" />
  </g>
</svg>
