<?xml version="1.0" encoding="UTF-8" standalone="no"?>
<!-- Created with Inkscape (http://www.inkscape.org/) -->

<svg
   xmlns:dc="http://purl.org/dc/elements/1.1/"
   xmlns:cc="http://creativecommons.org/ns#"
   xmlns:rdf="http://www.w3.org/1999/02/22-rdf-syntax-ns#"
   xmlns:svg="http://www.w3.org/2000/svg"
   xmlns="http://www.w3.org/2000/svg"
   xmlns:sodipodi="http://sodipodi.sourceforge.net/DTD/sodipodi-0.dtd"
   xmlns:inkscape="http://www.inkscape.org/namespaces/inkscape"
   width="500"
   height="500"
   viewBox="0 0 132.29166 132.29167"
   version="1.1"
   id="svg8"
   inkscape:version="0.92.3 (2405546, 2018-03-11)"
   sodipodi:docname="cup_img.svg">
  <defs
     id="defs2" />
  <sodipodi:namedview
     id="base"
     pagecolor="#ffffff"
     bordercolor="#666666"
     borderopacity="1.0"
     inkscape:pageopacity="0.0"
     inkscape:pageshadow="2"
     inkscape:zoom="1.4"
     inkscape:cx="34.804133"
     inkscape:cy="246.00968"
     inkscape:document-units="mm"
     inkscape:current-layer="layer1"
     showgrid="false"
     units="px"
     inkscape:window-width="1920"
     inkscape:window-height="1017"
     inkscape:window-x="-8"
     inkscape:window-y="-8"
     inkscape:window-maximized="1" />
  <metadata
     id="metadata5">
    <rdf:RDF>
      <cc:Work
         rdf:about="">
        <dc:format>image/svg+xml</dc:format>
        <dc:type
           rdf:resource="http://purl.org/dc/dcmitype/StillImage" />
        <dc:title></dc:title>
      </cc:Work>
    </rdf:RDF>
  </metadata>
  <g
     inkscape:label="Layer 1"
     inkscape:groupmode="layer"
     id="layer1"
     transform="translate(0,-164.70832)">
    <rect
       style="opacity:1;fill:#000000;fill-opacity:1;stroke:#000000;stroke-width:2.64583325;stroke-linecap:round;stroke-linejoin:miter;stroke-miterlimit:4;stroke-dasharray:none;stroke-dashoffset:0;stroke-opacity:1"
       id="rect815"
       width="114.62127"
       height="15.874996"
       x="8.3154764"
       y="273.75446" />
    <path
       style="fill:#000000;fill-opacity:1;stroke:#000000;stroke-width:2.64583325;stroke-linecap:butt;stroke-linejoin:round;stroke-miterlimit:4;stroke-dasharray:none;stroke-opacity:1"
       d="M 68.036617,274.41123 V 167.92092 H 17.804278 c 0,0 4.646882,22.39346 11.623977,36.49199 8.794794,17.77153 26.486534,31.30247 29.041498,33.62467 2.554965,2.32223 -12.576169,37.03715 -12.576169,37.03715 z"
       id="path817"
       inkscape:connector-curvature="0"
       sodipodi:nodetypes="cccsccc" />
    <path
       style="fill:#000000;fill-opacity:1;stroke:#000000;stroke-width:2.64583325;stroke-linecap:butt;stroke-linejoin:round;stroke-miterlimit:4;stroke-dasharray:none;stroke-opacity:1"
       d="M 63.274114,274.41123 V 167.92092 h 50.232346 c 0,0 -4.64688,22.39346 -11.62398,36.49199 -8.794797,17.77153 -26.486539,31.30247 -29.041501,33.62467 -2.554965,2.32223 12.57617,37.03715 12.57617,37.03715 z"
       id="path817-6"
       inkscape:connector-curvature="0"
       sodipodi:nodetypes="cccsccc" />
    <path
       style="fill:none;stroke:#000000;stroke-width:2.64583325;stroke-linecap:butt;stroke-linejoin:miter;stroke-miterlimit:4;stroke-dasharray:none;stroke-opacity:1"
       d="m 33.488694,186.06398 c 0,0 0.91338,-12.44036 -12.473215,-7.9375 -11.0233158,3.70792 -13.2028159,11.31672 -12.851193,23.62351 0.3779764,13.22916 6.803574,17.57589 23.245539,24.94643 17.575892,6.42559 39.876488,5.10267 39.876488,5.10267"
       id="path834"
       inkscape:connector-curvature="0"
       sodipodi:nodetypes="csscc" />
    <path
       style="fill:none;stroke:#000000;stroke-width:2.64583325;stroke-linecap:butt;stroke-linejoin:miter;stroke-miterlimit:4;stroke-dasharray:none;stroke-opacity:1"
       d="m 99.029736,186.06398 c 0,0 -0.913374,-12.44036 12.473204,-7.9375 11.02332,3.70792 13.20282,11.31672 12.85119,23.62351 -0.37797,13.22916 -6.80357,17.57589 -23.24553,24.94643 -17.575863,6.42559 -39.87646,5.10267 -39.87646,5.10267"
       id="path834-0"
       inkscape:connector-curvature="0"
       sodipodi:nodetypes="csscc" />
  </g>
</svg>
